<mxfile host="app.diagrams.net" modified="2023-11-10T06:11:45.343Z" agent="Mozilla/5.0 (Windows NT 10.0; Win64; x64) AppleWebKit/537.36 (KHTML, like Gecko) Chrome/119.0.0.0 Safari/537.36" version="21.7.2" etag="DrOCJ-5ccmp3I2__h6Ye" type="github">
  <diagram name="第 1 页" id="tuLGV-B5lpv0geEteXJJ">
    <mxGraphModel>
      <root>
        <mxCell id="0" />
        <mxCell id="1" parent="0" />
      </root>
    </mxGraphModel>
  </diagram>
</mxfile>
